<svg width="31" height="78" viewBox="0 0 31 78" fill="none" xmlns="http://www.w3.org/2000/svg">
<path d="M5.8125 77.5V22.7587L0 14.3438V0H31V14.3438L25.1875 22.7587V77.5H5.8125ZM15.5114 35.3175C14.5996 35.3175 13.8208 35.0025 13.175 34.3725C12.5292 33.7425 12.2062 32.9775 12.2062 32.0775C12.2062 31.1775 12.5254 30.4087 13.1636 29.7712C13.8018 29.1337 14.5768 28.815 15.4886 28.815C16.4004 28.815 17.1792 29.13 17.825 29.76C18.4708 30.39 18.7937 31.155 18.7937 32.055C18.7937 32.955 18.4746 33.7237 17.8364 34.3612C17.1982 34.9987 16.4232 35.3175 15.5114 35.3175ZM3.875 7.395H27.125V3.825H3.875V7.395ZM27.125 11.22H3.875V13.4513L9.6875 21.8025V73.675H21.3125V21.8025L27.125 13.4513V11.22Z" fill="white"/>
</svg>
