<svg width="54" height="39" viewBox="0 0 54 39" fill="none" xmlns="http://www.w3.org/2000/svg">
<path d="M13.05 25.0029L9.50625 21.4472C12.1312 18.8133 14.8781 16.8379 17.7469 15.521C20.6156 14.2041 23.7 13.5456 27 13.5456C30.3 13.5456 33.3844 14.2041 36.2531 15.521C39.1219 16.8379 41.8687 18.8133 44.4937 21.4472L40.95 25.0029C38.6625 22.7077 36.3562 21.0709 34.0312 20.0926C31.7062 19.1143 29.3625 18.6252 27 18.6252C24.6375 18.6252 22.2937 19.1143 19.9687 20.0926C17.6437 21.0709 15.3375 22.7077 13.05 25.0029ZM3.54375 15.4645L0 11.9088C3.4875 8.3343 7.54687 5.45586 12.1781 3.27352C16.8094 1.09117 21.75 0 27 0C32.25 0 37.1906 1.09117 41.8219 3.27352C46.4531 5.45586 50.5125 8.3343 54 11.9088L50.4562 15.4645C47.1562 12.3039 43.5469 9.78292 39.6281 7.90159C35.7094 6.02026 31.5 5.07959 27 5.07959C22.5 5.07959 18.2906 6.02026 14.3719 7.90159C10.4531 9.78292 6.84375 12.3039 3.54375 15.4645ZM27 39L35.325 30.5904C34.2375 29.4993 32.9906 28.6433 31.5844 28.0224C30.1781 27.4016 28.65 27.0912 27 27.0912C25.35 27.0912 23.8219 27.4016 22.4156 28.0224C21.0094 28.6433 19.7625 29.4993 18.675 30.5904L27 39Z" fill="#3E3E3E"/>
</svg>
