<svg width="67" height="55" viewBox="0 0 67 55" fill="none" xmlns="http://www.w3.org/2000/svg">
<path d="M33.2917 44.75C37.3194 44.75 40.6944 43.3889 43.4167 40.6667C46.1389 37.9444 47.5 34.5694 47.5 30.5417C47.5 26.5139 46.1389 23.1528 43.4167 20.4583C40.6944 17.7639 37.3194 16.4167 33.2917 16.4167C29.2639 16.4167 25.9028 17.7639 23.2083 20.4583C20.5139 23.1528 19.1667 26.5139 19.1667 30.5417C19.1667 34.5694 20.5139 37.9444 23.2083 40.6667C25.9028 43.3889 29.2639 44.75 33.2917 44.75ZM33.2917 39.75C30.6528 39.75 28.4722 38.875 26.75 37.125C25.0278 35.375 24.1667 33.1806 24.1667 30.5417C24.1667 27.9028 25.0278 25.7222 26.75 24C28.4722 22.2778 30.6528 21.4167 33.2917 21.4167C35.9306 21.4167 38.125 22.2778 39.875 24C41.625 25.7222 42.5 27.9028 42.5 30.5417C42.5 33.1806 41.625 35.375 39.875 37.125C38.125 38.875 35.9306 39.75 33.2917 39.75ZM5 55C3.66667 55 2.5 54.5 1.5 53.5C0.5 52.5 0 51.3333 0 50V12.25C0 10.9722 0.5 9.81944 1.5 8.79167C2.5 7.76389 3.66667 7.25 5 7.25H17.25L23.3333 0H43.3333L49.4167 7.25H61.6667C62.9444 7.25 64.0972 7.76389 65.125 8.79167C66.1528 9.81944 66.6667 10.9722 66.6667 12.25V50C66.6667 51.3333 66.1528 52.5 65.125 53.5C64.0972 54.5 62.9444 55 61.6667 55H5ZM5 50H61.6667V12.25H47.0833L41 5H25.6667L19.5833 12.25H5V50Z" fill="white"/>
</svg>
