<svg width="78" height="39" viewBox="0 0 78 39" fill="none" xmlns="http://www.w3.org/2000/svg">
<path d="M68.835 6.58975e-06C69.6638 6.6622e-06 70.3584 0.280319 70.9191 0.840944C71.4797 1.40157 71.76 2.09626 71.76 2.92501L71.76 11.7L78 11.7L78 27.3L71.76 27.3L71.76 36.075C71.76 36.9037 71.4797 37.5984 70.9191 38.1591C70.3584 38.7197 69.6638 39 68.835 39L2.925 39C2.09625 39 1.40157 38.7197 0.84094 38.1591C0.280315 37.5984 3.04428e-06 36.9037 3.11673e-06 36.075L6.0148e-06 2.925C6.08725e-06 2.09625 0.280319 1.40156 0.840944 0.840938C1.40157 0.280313 2.09626 7.5526e-07 2.92501 8.27711e-07L68.835 6.58975e-06ZM65.91 5.85001L17.55 5.85L17.55 33.15L65.91 33.15L65.91 5.85001Z" fill="#3E3E3E"/>
</svg>
